<?xml version="1.0" encoding="UTF-8"?>
<!DOCTYPE svg PUBLIC "-//W3C//DTD SVG 1.1//EN" "http://www.w3.org/Graphics/SVG/1.1/DTD/svg11.dtd">
<svg version="1.1" xmlns="http://www.w3.org/2000/svg" xmlns:xlink="http://www.w3.org/1999/xlink" x="0" y="0" width="583" height="330" viewBox="0, 0, 583, 330">
  <g id="Layer_1">
    <path d="M517.366,176.172 C515.289,178.848 515.072,178.848 514.826,178.848 C514.693,178.848 514.476,178.428 511.735,176.864 L509.699,178.76 L509.831,178.76 C512.246,178.76 514.666,179.114 517.041,178.998 C517.244,177.958 517.429,177.127 517.595,176.083 C517.518,176.04 517.447,176.215 517.366,176.172" fill="#36A0CE"/>
    <path d="M402.413,170.598 C402.422,170.571 402.431,170.542 402.44,170.515 C400.289,170.91 398.116,171.31 395.931,171.711 C395.917,171.739 395.901,171.767 395.887,171.794 C398.077,171.394 400.255,170.994 402.413,170.598" fill="#36A0CE"/>
    <path d="M412.688,168.712 C412.697,168.682 412.709,168.655 412.72,168.624 C410.67,169.001 408.607,169.38 406.529,169.761 C406.516,169.792 406.502,169.822 406.488,169.85 C408.569,169.469 410.636,169.089 412.688,168.712" fill="#36A0CE"/>
    <path d="M488.138,110.996 C488.138,112.059 487.275,112.924 486.211,112.924 C485.146,112.924 484.283,112.059 484.283,110.996 C484.283,109.929 485.146,109.067 486.211,109.067 C487.275,109.067 488.138,109.929 488.138,110.996 M458.268,108.732 C457.202,108.732 456.34,107.868 456.34,106.804 C456.34,105.739 457.202,104.876 458.268,104.876 C459.332,104.876 460.194,105.739 460.194,106.804 C460.194,107.868 459.332,108.732 458.268,108.732 M383.497,107.157 C381.189,107.157 379.319,105.287 379.319,102.979 C379.319,100.673 381.189,98.802 383.497,98.802 C385.804,98.802 387.672,100.673 387.672,102.979 C387.672,105.287 385.804,107.157 383.497,107.157 M301.207,95.189 C299.874,95.189 298.795,94.111 298.795,92.779 C298.795,91.447 299.874,90.366 301.207,90.366 C302.538,90.366 303.618,91.447 303.618,92.779 C303.618,94.111 302.538,95.189 301.207,95.189 M277.455,135.707 C276.122,135.707 275.041,134.629 275.041,133.297 C275.041,131.966 276.122,130.885 277.455,130.885 C278.787,130.885 279.866,131.966 279.866,133.297 C279.866,134.629 278.787,135.707 277.455,135.707 M245.319,138.501 C243.987,138.501 242.906,137.423 242.906,136.092 C242.906,134.76 243.987,133.679 245.319,133.679 C246.651,133.679 247.73,134.76 247.73,136.092 C247.73,137.423 246.651,138.501 245.319,138.501 M210.39,123.135 C209.057,123.135 207.977,122.054 207.977,120.722 C207.977,119.39 209.057,118.31 210.39,118.31 C211.722,118.31 212.801,119.39 212.801,120.722 C212.801,122.054 211.722,123.135 210.39,123.135 M207.596,145.488 C206.262,145.488 205.182,144.409 205.182,143.077 C205.182,141.745 206.262,140.665 207.596,140.665 C208.928,140.665 210.007,141.745 210.007,143.077 C210.007,144.409 208.928,145.488 207.596,145.488 M190.697,116.484 C189.101,116.484 187.805,115.188 187.805,113.592 C187.805,111.994 189.101,110.701 190.697,110.701 C192.292,110.701 193.587,111.994 193.587,113.592 C193.587,115.188 192.292,116.484 190.697,116.484 M190.697,154.207 C189.101,154.207 187.805,152.912 187.805,151.316 C187.805,149.718 189.101,148.425 190.697,148.425 C192.292,148.425 193.587,149.718 193.587,151.316 C193.587,152.912 192.292,154.207 190.697,154.207 M182.446,134.309 C181.113,134.309 180.033,133.232 180.033,131.9 C180.033,130.569 181.113,129.488 182.446,129.488 C183.778,129.488 184.857,130.569 184.857,131.9 C184.857,133.232 183.778,134.309 182.446,134.309 M168.474,111.954 C167.142,111.954 166.061,110.877 166.061,109.545 C166.061,108.214 167.142,107.133 168.474,107.133 C169.806,107.133 170.885,108.214 170.885,109.545 C170.885,110.877 169.806,111.954 168.474,111.954 M139.001,168.18 C137.404,168.18 136.108,166.884 136.108,165.288 C136.108,163.69 137.404,162.397 139.001,162.397 C140.597,162.397 141.891,163.69 141.891,165.288 C141.891,166.884 140.597,168.18 139.001,168.18 M470.47,78.74 C473.564,88.011 469.697,96.668 451.779,100.466 C412.266,111.067 395.08,87.856 364.722,79.18 C337.978,71.54 304.97,70.99 277.02,78.701 C270.435,80.145 262.412,85.7 268.026,85.446 C282.161,84.804 290.514,95.565 293.405,104.239 C294.368,109.057 294.368,114.84 290.513,117.732 C276.056,130.26 259.432,123.192 243.048,117.41 C226.664,111.628 143.703,64.083 118.966,130.227 C137.276,113.555 164.263,117.732 169.082,133.15 C173.9,148.573 162.336,149.535 146.915,153.39 C131.377,157.78 111.227,159.342 91.56,162.24 C103.606,167.747 115.243,174.726 126.148,183.095 L162.655,173.852 C163.285,172.539 164.061,168.166 164.538,165.471 C165.728,158.763 166.282,156.328 167.819,155.37 C168.223,155.118 168.708,154.989 169.264,154.989 C172.949,154.989 188.244,162.662 193.871,165.547 C220.392,158.247 292.459,139.999 310.726,135.584 C313.892,131.894 320.342,113.065 319.428,90.503 L319.345,88.429 L321.419,88.497 C344.629,89.3 357.49,99.576 367.824,107.834 C370.167,109.705 372.379,111.473 374.492,112.933 C381.128,117.522 397.271,117.58 417.713,117.655 C435.286,117.718 455.206,117.789 475.818,120.64 C485.052,121.917 497.457,124.002 510.508,126.645 C502.605,109.288 489.072,93.027 470.47,78.74" fill="#36A0CE"/>
    <path d="M518.093,153.642 C518.091,153.628 518.091,153.614 518.088,153.603 C486.425,155.495 454.032,161.061 417.057,167.828 C417.044,167.861 417.03,167.89 417.017,167.921 C454.038,161.159 486.465,155.581 518.093,153.642" fill="#36A0CE"/>
    <path d="M382.069,174.242 C317.209,185.993 237.28,198.921 125.926,202.572 L125.927,202.572 C237.1,198.929 317.103,186.048 382.051,174.313 C382.057,174.288 382.063,174.265 382.069,174.242" fill="#36A0CE"/>
    <path d="M94.518,203.329 C96.876,203.292 99.245,203.258 101.576,203.212 C99.245,203.258 96.876,203.292 94.518,203.329" fill="#36A0CE"/>
    <path d="M141.714,233.052 C142.778,233.078 143.619,233.962 143.592,235.027 C143.567,236.089 142.68,236.933 141.619,236.905 C140.552,236.878 139.71,235.99 139.738,234.93 C139.765,233.865 140.649,233.025 141.714,233.052 M176.882,227.51 C179.187,227.567 181.01,229.484 180.953,231.789 C180.894,234.096 178.976,235.919 176.671,235.862 C174.366,235.803 172.542,233.886 172.602,231.579 C172.659,229.274 174.575,227.451 176.882,227.51 M184.991,261.778 C184.944,263.633 183.402,265.099 181.546,265.053 C179.691,265.006 178.225,263.464 178.272,261.609 C178.319,259.753 179.86,258.287 181.715,258.332 C183.571,258.38 185.038,259.922 184.991,261.778 M206.451,265.532 C207.516,265.56 208.355,266.445 208.33,267.508 C208.303,268.571 207.417,269.412 206.355,269.387 C205.29,269.36 204.448,268.475 204.475,267.411 C204.502,266.346 205.386,265.507 206.451,265.532 M209.226,244.714 C211.532,244.772 213.355,246.688 213.295,248.994 C213.237,251.3 211.322,253.122 209.015,253.066 C206.71,253.007 204.887,251.09 204.945,248.784 C205.003,246.478 206.92,244.657 209.226,244.714 M218.708,276.447 C219.773,276.473 220.613,277.359 220.588,278.422 C220.562,279.485 219.675,280.326 218.612,280.299 C217.547,280.274 216.706,279.389 216.733,278.323 C216.759,277.261 217.645,276.419 218.708,276.447 M233.554,248.38 C235.861,248.439 237.683,250.355 237.625,252.66 C237.568,254.968 235.65,256.787 233.345,256.731 C231.041,256.673 229.216,254.756 229.275,252.45 C229.333,250.145 231.249,248.322 233.554,248.38 M246.096,266.704 C247.952,266.751 249.418,268.294 249.371,270.15 C249.324,272.004 247.782,273.472 245.926,273.424 C244.071,273.378 242.604,271.835 242.652,269.98 C242.698,268.125 244.24,266.658 246.096,266.704 M262.929,281.417 C263.995,281.445 264.835,282.328 264.808,283.392 C264.782,284.457 263.897,285.298 262.832,285.271 C261.768,285.244 260.927,284.361 260.953,283.295 C260.982,282.233 261.866,281.39 262.929,281.417 M269.098,253.454 C272.026,253.527 274.337,255.959 274.264,258.886 C274.189,261.813 271.757,264.124 268.83,264.05 C265.905,263.979 263.591,261.545 263.666,258.619 C263.74,255.694 266.172,253.38 269.098,253.454 M299.567,268.523 C303.292,268.616 306.234,271.712 306.141,275.437 C306.048,279.162 302.953,282.105 299.229,282.011 C295.503,281.916 292.559,278.822 292.653,275.098 C292.748,271.372 295.843,268.429 299.567,268.523 M321.411,243.366 C326.021,243.482 329.665,247.315 329.55,251.925 C329.434,256.536 325.602,260.18 320.99,260.066 C316.38,259.948 312.735,256.115 312.852,251.505 C312.968,246.893 316.798,243.25 321.411,243.366 M331.576,273.508 C331.537,275.105 330.211,276.366 328.614,276.325 C327.018,276.284 325.756,274.958 325.796,273.363 C325.837,271.766 327.162,270.505 328.761,270.544 C330.355,270.585 331.617,271.909 331.576,273.508 M360.944,262.197 C364.227,262.28 366.819,265.006 366.737,268.287 C366.655,271.57 363.926,274.163 360.645,274.079 C357.363,273.996 354.771,271.271 354.854,267.989 C354.936,264.707 357.663,262.114 360.944,262.197 M377.828,248.966 C379.246,249.001 380.368,250.182 380.332,251.601 C380.295,253.018 379.118,254.14 377.699,254.105 C376.278,254.067 375.158,252.89 375.195,251.471 C375.229,250.052 376.409,248.93 377.828,248.966 M384.086,230.163 C385.683,230.203 386.942,231.53 386.903,233.126 C386.863,234.722 385.536,235.984 383.94,235.943 C382.343,235.904 381.084,234.576 381.122,232.982 C381.162,231.385 382.49,230.122 384.086,230.163 M397.199,258.129 C400.745,258.22 403.551,261.167 403.46,264.715 C403.371,268.263 400.424,271.066 396.875,270.975 C393.328,270.886 390.524,267.939 390.614,264.392 C390.703,260.845 393.651,258.04 397.199,258.129 M400.155,242.78 C401.576,242.817 402.696,243.994 402.661,245.414 C402.625,246.833 401.443,247.954 400.027,247.917 C398.608,247.882 397.485,246.703 397.522,245.284 C397.56,243.865 398.738,242.743 400.155,242.78 M146.65,257.185 C187.908,283.409 242.941,297.851 301.609,297.851 C360.276,297.851 415.307,283.409 456.565,257.185 C482.672,240.591 501.12,220.608 510.8,198.94 C493.983,203.96 463.593,213.156 461.254,216.621 C460.626,217.565 459.87,218.872 458.996,220.389 C458.32,221.562 457.563,222.863 456.737,224.238 C456.86,224.235 456.978,224.207 457.101,224.21 C460.518,224.296 463.214,227.134 463.128,230.55 C463.043,233.963 460.205,236.662 456.791,236.573 C454.193,236.51 452.02,234.85 451.16,232.557 C446.632,238.538 440.494,244.823 431.906,249.528 L429.498,250.848 L429.075,248.133 C428.912,247.082 428.728,246.07 428.529,245.086 C428.478,245.085 428.429,245.099 428.376,245.098 C424.298,244.995 421.074,241.604 421.178,237.525 C421.236,235.149 422.433,233.085 424.212,231.778 C421.1,225.202 417.626,221.642 416.228,220.341 C395.572,224.745 373.897,227.674 351.547,228.849 C353.883,230.302 355.416,232.914 355.341,235.864 C355.23,240.299 351.544,243.804 347.11,243.693 C342.677,243.58 339.174,239.895 339.285,235.461 C339.35,232.886 340.626,230.445 342.547,229.023 C338.229,229.156 333.895,229.059 329.532,229.059 L329.525,229.059 C323.155,229.059 316.999,229.1 311.089,228.854 L273.801,245.072 L283.81,236.68 C285.105,235.587 289.009,232.322 294.164,228.007 C275.842,226.593 260.991,224.447 251.373,223.123 C246.642,222.471 242.904,221.818 240.566,221.629 C238.684,221.697 219.443,226.292 207.778,229.218 L202.765,230.441 L209.499,220.815 L184.4,217.109 C181.669,219.181 171.205,226.315 153.617,228.867 L149.625,229.447 L151.682,225.975 C154.643,220.978 157.298,213.202 158.507,209.397 L134.234,207.318 L134.218,207.41 L133.595,207.263 L128.405,206.818 C126.643,209.869 121.201,218.305 110.631,226.907 C120.188,237.838 132.247,248.03 146.65,257.185" fill="#36A0CE"/>
    <path d="M504.288,179.477 C505.235,179.521 506.209,179.552 507.203,179.574 L505.844,178.839 C505.322,179.048 504.795,179.249 504.288,179.477" fill="#36A0CE"/>
    <path d="M392.194,172.47 C392.201,172.446 392.209,172.418 392.218,172.392 C389.918,172.814 387.599,173.237 385.261,173.663 C385.247,173.688 385.231,173.715 385.218,173.74 C387.563,173.316 389.887,172.892 392.194,172.47" fill="#36A0CE"/>
    <path d="M112.89,202.956 C109.938,203.031 106.949,203.096 103.955,203.159 C106.949,203.096 109.938,203.031 112.89,202.956" fill="#36A0CE"/>
    <path d="M115.167,202.891 L115.167,202.891 C114.889,202.9 114.616,202.907 114.339,202.915 C114.616,202.907 114.889,202.9 115.167,202.891" fill="#36A0CE"/>
    <path d="M137.237,54.22 C181.274,26.23 239.649,10.816 301.607,10.816 C363.569,10.816 421.941,26.23 465.979,54.22 C499.375,75.448 521.687,102.062 531.103,131.202 C536.053,132.4 540.904,133.66 545.522,134.97 C536.354,102.192 512.288,72.203 475.496,48.479 C428.91,18.436 367.155,1.892 301.607,1.892 C236.062,1.892 174.308,18.436 127.72,48.479 C85.258,75.86 59.742,111.584 54.526,150.312 C58.872,151.15 63.203,152.178 67.513,153.396 C71.096,115.652 95.525,80.734 137.237,54.22" fill="#559AC7"/>
    <path d="M80.647,214.717 C78.532,210.864 76.666,206.952 75.036,202.987 C69.783,197.909 62.937,192.02 55.479,186.041 C58.415,201.489 64.624,216.402 73.86,230.442 C75.552,226.401 77.768,221.24 80.647,214.717" fill="#559AC7"/>
    <path d="M546.188,177.143 L545.831,177.326 L544.706,179.376 C544.497,179.753 539.996,187.771 532.03,191.992 C523.213,222.312 500.526,250.036 465.979,271.996 C421.941,299.985 363.567,315.4 301.609,315.4 C239.651,315.4 181.274,299.985 137.238,271.996 C120.64,261.446 106.79,249.564 95.887,236.704 C91.932,238.829 87.56,240.813 82.761,242.571 C94.469,256.936 109.541,270.191 127.722,281.915 C174.306,311.956 236.062,328.5 301.609,328.5 C367.157,328.5 428.91,311.956 475.496,281.915 C518.798,253.991 544.494,217.395 548.991,177.782 C548.19,177.586 547.258,177.369 546.188,177.143" fill="#559AC7"/>
    <path d="M535.128,177.716 C535.685,177.639 536.218,177.566 536.724,177.493 L535.345,176.071 C535.274,176.619 535.205,177.169 535.128,177.716" fill="#559AC7"/>
    <path d="M541.328,158.932 C541.964,158.946 543.661,158.116 545.618,157.082 C543.559,158.12 541.824,158.942 541.328,158.932" fill="#559AC7"/>
    <path d="M541.328,158.932 C540.424,158.913 541.136,157.377 541.831,155.861 C541.041,157.374 540.233,158.907 541.328,158.932" fill="#559AC7"/>
    <path d="M541.704,152.905 C539.493,152.896 537.87,152.914 535.075,152.946 L535.075,152.957 C537.87,152.921 539.493,152.901 541.704,152.905" fill="#559AC7"/>
    <path d="M540.703,176.147 L538.251,177.27 C539.97,177.012 541.248,176.799 541.978,176.674 L541.701,176.304 C541.374,176.25 541.042,176.198 540.703,176.147" fill="#559AC7"/>
    <path d="M46.946,156.895 C44.348,156.392 41.894,155.875 39.605,155.541 C37.326,155.146 35.222,154.883 33.357,154.643 C31.492,154.415 29.86,154.252 28.515,154.135 C25.824,153.905 24.278,153.872 24.278,153.872 C24.278,153.872 25.824,153.845 28.526,153.971 C29.876,154.035 31.516,154.132 33.394,154.286 C35.27,154.455 37.392,154.637 39.691,154.946 C41.998,155.193 44.478,155.611 47.109,156.017 C49.731,156.471 52.491,156.994 55.331,157.602 C58.155,158.279 61.106,158.874 64.032,159.745 C65.504,160.154 66.991,160.564 68.479,160.977 C69.95,161.453 71.426,161.935 72.903,162.413 C75.877,163.32 78.769,164.46 81.628,165.555 C84.518,166.579 87.227,167.91 89.906,169.07 C92.609,170.189 95.069,171.581 97.465,172.784 C98.649,173.407 99.824,173.982 100.925,174.593 C102.011,175.239 103.056,175.864 104.064,176.462 C106.063,177.68 107.946,178.723 109.527,179.78 C111.096,180.863 112.464,181.806 113.589,182.583 C115.844,184.14 117.131,185.03 117.131,185.03 L114.775,188.08 C114.775,188.08 113.555,187.166 111.42,185.569 C110.353,184.767 109.057,183.794 107.568,182.68 C106.064,181.585 104.265,180.501 102.358,179.234 C101.397,178.608 100.396,177.956 99.36,177.282 C98.305,176.64 97.178,176.035 96.04,175.381 C93.74,174.112 91.374,172.644 88.766,171.444 C86.176,170.203 83.559,168.786 80.752,167.669 C77.978,166.479 75.166,165.239 72.264,164.232 C70.823,163.7 69.382,163.169 67.946,162.638 C66.487,162.174 65.036,161.71 63.594,161.25 C60.725,160.274 57.828,159.571 55.05,158.787 C52.253,158.075 49.533,157.45 46.946,156.895 M170.527,162.305 C174.834,164.087 179.121,165.908 183.379,167.788 C187.499,169.578 191.589,171.427 195.683,173.271 C200.51,171.891 205.349,170.566 210.182,169.218 L225.127,165.213 L240.109,161.347 L255.123,157.612 C260.125,156.356 265.151,155.207 270.167,154.001 C275.181,152.798 280.221,151.69 285.247,150.53 C295.323,148.309 305.409,146.126 315.571,144.235 C305.733,147.404 295.823,150.281 285.901,153.117 C280.927,154.488 275.969,155.911 270.986,157.239 C266,158.562 261.031,159.942 256.033,161.217 L241.05,165.072 L226.035,168.794 L210.982,172.378 C205.953,173.522 200.927,174.693 195.89,175.8 L195.404,175.907 L195.036,175.71 C190.927,173.526 186.814,171.348 182.731,169.11 C178.638,166.894 174.573,164.616 170.527,162.305 M335.489,168.429 C337.318,168.429 338.801,169.32 338.801,170.416 C338.801,171.514 337.318,172.405 335.489,172.405 C333.657,172.405 332.175,171.514 332.175,170.416 C332.175,169.32 333.657,168.429 335.489,168.429 M360.545,154.937 C362.376,154.937 363.857,155.826 363.857,156.924 C363.857,158.024 362.376,158.91 360.545,158.91 C358.716,158.91 357.231,158.024 357.231,156.924 C357.231,155.826 358.716,154.937 360.545,154.937 M371.145,167.466 C372.978,167.466 374.458,168.356 374.458,169.453 C374.458,170.55 372.978,171.441 371.145,171.441 C369.317,171.441 367.834,170.55 367.834,169.453 C367.834,168.356 369.317,167.466 371.145,167.466 M308.502,173.789 C307.171,173.789 306.093,173.143 306.093,172.344 C306.093,171.546 307.171,170.898 308.502,170.898 C309.832,170.898 310.912,171.546 310.912,172.344 C310.912,173.143 309.832,173.789 308.502,173.789 M295.011,184.391 C293.681,184.391 292.602,183.744 292.602,182.946 C292.602,182.148 293.681,181.5 295.011,181.5 C296.341,181.5 297.419,182.148 297.419,182.946 C297.419,183.744 296.341,184.391 295.011,184.391 M271.881,182.464 C270.549,182.464 269.472,181.817 269.472,181.018 C269.472,180.22 270.549,179.572 271.881,179.572 C273.212,179.572 274.291,180.22 274.291,181.018 C274.291,181.817 273.212,182.464 271.881,182.464 M251.641,189.21 C250.312,189.21 249.234,188.562 249.234,187.764 C249.234,186.965 250.312,186.32 251.641,186.32 C252.972,186.32 254.051,186.965 254.051,187.764 C254.051,188.562 252.972,189.21 251.641,189.21 M192.854,195.956 C191.522,195.956 190.443,195.309 190.443,194.511 C190.443,193.712 191.522,193.065 192.854,193.065 C194.185,193.065 195.263,193.712 195.263,194.511 C195.263,195.309 194.185,195.956 192.854,195.956 M436.681,150.118 C438.512,150.118 439.993,151.009 439.993,152.105 C439.993,153.201 438.512,154.094 436.681,154.094 C434.851,154.094 433.367,153.201 433.367,152.105 C433.367,151.009 434.851,150.118 436.681,150.118 M464.629,152.588 C465.96,152.588 467.039,153.236 467.039,154.032 C467.039,154.83 465.96,155.478 464.629,155.478 C463.299,155.478 462.22,154.83 462.22,154.032 C462.22,153.236 463.299,152.588 464.629,152.588 M508.321,147.447 C510.185,147.447 511.694,148.489 511.694,149.778 C511.694,151.062 510.185,152.105 508.321,152.105 C506.458,152.105 504.947,151.062 504.947,149.778 C504.947,148.489 506.458,147.447 508.321,147.447 M92.42,203.364 C93.123,203.354 93.816,203.34 94.518,203.329 C96.876,203.292 99.245,203.258 101.576,203.212 C102.377,203.197 103.157,203.175 103.955,203.159 C106.949,203.096 109.938,203.03 112.89,202.956 C113.377,202.945 113.854,202.928 114.339,202.915 C114.618,202.907 114.889,202.9 115.167,202.891 L102.181,199.812 L125.926,202.572 C237.28,198.921 317.209,185.993 382.069,174.242 C382.816,171.334 384.012,167.816 385.438,164.385 C387.04,160.606 388.814,156.842 390.454,154.166 C391.239,152.81 391.978,151.714 392.512,150.954 C393.047,150.195 393.394,149.778 393.394,149.778 C393.394,149.778 393.357,150.319 393.221,151.238 C393.084,152.156 392.863,153.459 392.5,154.983 C391.807,158.051 390.618,162.005 389.008,165.842 C387.842,168.634 386.53,171.358 385.261,173.662 C387.599,173.237 389.918,172.814 392.218,172.392 C392.952,169.902 393.941,167.116 395.076,164.385 C396.678,160.606 398.451,156.842 400.091,154.166 C400.876,152.81 401.614,151.714 402.149,150.954 C402.685,150.195 403.031,149.778 403.031,149.778 C403.031,149.778 402.992,150.319 402.857,151.238 C402.723,152.156 402.502,153.459 402.137,154.983 C401.443,158.051 400.255,162.005 398.645,165.842 C397.794,167.881 396.865,169.88 395.931,171.711 C398.116,171.31 400.287,170.91 402.44,170.515 C403.085,168.539 403.856,166.447 404.713,164.387 C406.313,160.606 408.088,156.842 409.728,154.166 C410.513,152.81 411.251,151.714 411.785,150.954 C412.321,150.195 412.668,149.778 412.668,149.778 C412.668,149.778 412.631,150.319 412.494,151.238 C412.359,152.156 412.139,153.459 411.773,154.983 C411.081,158.051 409.893,162.005 408.282,165.842 C407.726,167.177 407.134,168.494 406.529,169.761 C408.607,169.38 410.67,169.001 412.72,168.624 C413.215,167.229 413.763,165.799 414.352,164.387 C415.953,160.606 417.726,156.842 419.366,154.166 C420.151,152.81 420.89,151.714 421.425,150.954 C421.96,150.195 422.307,149.778 422.307,149.778 C422.307,149.778 422.27,150.319 422.133,151.238 C421.998,152.156 421.777,153.459 421.412,154.983 C420.72,158.051 419.531,162.005 417.92,165.842 C417.642,166.51 417.351,167.172 417.059,167.828 C454.032,161.061 486.425,155.495 518.088,153.603 C523.964,153.251 529.813,153.027 535.662,152.946 C537.872,152.912 540.082,152.896 542.292,152.907 C543.364,152.909 542.607,154.374 541.831,155.861 C541.136,157.377 540.424,158.913 541.328,158.932 C541.822,158.942 543.559,158.12 545.618,157.082 C548.597,155.507 552.168,153.466 553.542,153.179 C553.986,153.003 554.324,152.899 554.5,152.905 C556.246,152.962 557.896,153.044 559.514,153.138 C557.95,152.328 556.274,151.685 554.659,150.947 C552.881,150.115 551.008,149.468 549.155,148.779 C545.48,147.322 541.651,146.227 537.858,145.034 C535.975,144.401 534.024,143.963 532.099,143.45 L526.306,141.95 C522.429,141.005 518.493,140.264 514.589,139.405 L511.651,138.795 L508.69,138.291 L502.766,137.285 L496.837,136.278 L490.876,135.486 L478.941,133.917 L466.95,132.751 C462.951,132.375 458.958,131.921 454.943,131.712 L442.91,130.923 L436.893,130.528 L430.865,130.29 L418.808,129.848 C414.787,129.707 410.768,129.51 406.744,129.515 L382.599,129.269 L382.322,129.266 L382.125,129.102 L375.834,123.904 C373.75,122.15 371.612,120.471 369.474,118.79 L366.269,116.265 C365.214,115.407 364.096,114.634 363.006,113.822 L359.717,111.409 C358.632,110.588 357.512,109.821 356.368,109.089 L352.964,106.846 C351.848,106.067 350.665,105.403 349.48,104.737 L345.938,102.72 C344.757,102.048 343.493,101.539 342.273,100.94 C341.032,100.392 339.84,99.721 338.557,99.27 L334.729,97.86 C333.465,97.345 332.148,97.003 330.834,96.649 L326.894,95.565 L330.857,96.561 C332.182,96.886 333.51,97.199 334.785,97.687 L338.657,99.014 C339.955,99.441 341.164,100.084 342.426,100.608 C343.662,101.181 344.946,101.667 346.147,102.313 L349.752,104.259 C350.957,104.902 352.163,105.546 353.301,106.302 L356.77,108.481 C357.938,109.19 359.081,109.935 360.187,110.736 L363.542,113.081 C364.655,113.872 365.796,114.623 366.872,115.462 L370.141,117.923 C372.325,119.557 374.507,121.196 376.632,122.905 L382.839,127.806 L406.76,127.514 C410.791,127.416 414.822,127.526 418.854,127.578 L430.951,127.749 L437.001,127.853 L443.045,128.112 L455.142,128.636 C459.178,128.757 463.2,129.123 467.228,129.411 L479.311,130.315 L491.367,131.624 L497.396,132.29 L503.403,133.171 L509.411,134.056 L512.418,134.498 L515.407,135.051 C519.388,135.828 523.389,136.492 527.355,137.366 L533.292,138.761 C535.27,139.242 537.263,139.644 539.214,140.251 C543.132,141.386 547.077,142.423 550.932,143.845 C552.867,144.518 554.817,145.146 556.713,145.976 C558.613,146.792 560.554,147.464 562.412,148.432 L565.225,149.797 C566.16,150.259 567.067,150.826 567.989,151.338 C568.913,151.835 569.82,152.433 570.72,153.05 C571.171,153.356 571.612,153.634 572.11,154.046 C572.211,154.127 572.313,154.208 572.418,154.293 C573.94,154.462 575.522,154.646 577.156,154.833 C577.245,154.401 577.274,153.98 577.236,153.572 C577.179,152.976 575.748,147.468 543.456,138.38 C523.803,132.849 498.319,127.643 475.289,124.46 C454.933,121.645 435.15,121.572 417.699,121.51 C396.59,121.432 379.917,121.372 372.298,116.105 C370.075,114.568 367.813,112.76 365.417,110.845 C355.842,103.193 343.995,93.73 323.346,92.452 C323.743,110.891 319.53,126.775 315.818,134.441 L368.418,122.229 L313.018,138.75 C313.016,138.752 313.014,138.755 313.012,138.755 L312.648,139.087 L312.166,138.978 C311.148,139.224 309.928,139.639 308.542,139.639 L308.539,139.639 C286.167,139.639 218.783,162.437 194.171,169.239 L193.443,169.553 L192.774,169.264 C183.754,164.611 173.022,159.643 169.877,158.91 C169.359,160.333 168.755,163.76 168.333,166.128 C167.733,169.528 167.265,171.972 166.751,173.718 L179.803,171.818 L165.094,176.964 C165.083,176.974 165.073,176.987 165.062,176.995 L164.71,177.31 L162.537,177.86 L160.781,178.473 L160.742,178.314 L132.5,185.464 C130.536,185.98 123.39,187.851 116.226,189.73 C114.123,190.29 112.032,190.901 110.064,191.447 C108.099,191.999 106.263,192.515 104.691,192.955 C101.548,193.84 99.452,194.429 99.452,194.429 C99.452,194.429 101.467,193.614 104.492,192.387 C106.003,191.776 107.769,191.062 109.657,190.296 C111.552,189.536 113.56,188.7 115.587,187.911 C117.978,186.991 120.361,186.075 122.543,185.236 C93.625,163.435 59.667,151.425 26.626,151.425 C22.4,151.425 18.18,151.627 14.02,152.023 C33.362,163.258 66.187,188.078 81.01,203.498 C84.042,203.471 87.071,203.445 90.059,203.404 C90.853,203.392 91.629,203.376 92.42,203.364" fill="#1F67A3"/>
    <path d="M309.75,221.541 C309.769,220.793 310.01,220.105 310.396,219.523 C305.74,223.379 300.957,227.368 296.379,231.202 L311.321,224.739 C310.345,224.018 309.717,222.849 309.75,221.541" fill="#1F67A3"/>
    <path d="M327.205,217.483 C325.609,217.442 324.348,216.115 324.389,214.518 C324.428,212.922 325.755,211.66 327.351,211.701 C328.947,211.74 330.209,213.068 330.168,214.663 C330.127,216.26 328.802,217.522 327.205,217.483 M312.138,218.078 C312.619,217.88 313.146,217.771 313.701,217.784 C315.83,217.837 317.511,219.609 317.457,221.736 C317.454,221.864 317.426,221.983 317.411,222.107 L398.076,187.225 C397.307,187.179 396.407,187.152 395.357,187.152 C378.644,187.152 343.338,194.072 339.93,195.89 C337.858,196.994 325.743,206.818 312.138,218.078" fill="#1F67A3"/>
    <path d="M114.146,141.676 C112.908,141.676 111.783,142.117 110.88,142.83 C111.311,142.718 111.756,142.638 112.22,142.638 C115.148,142.638 117.522,145.012 117.522,147.94 C117.522,149.627 116.717,151.114 115.487,152.084 C117.763,151.489 119.449,149.439 119.449,146.977 C119.449,144.049 117.075,141.676 114.146,141.676" fill="#559AC7"/>
    <path d="M128.363,132.911 C127.641,132.911 127.019,133.312 126.688,133.901 C127.633,134.026 128.363,134.824 128.363,135.802 C128.363,136.143 128.266,136.462 128.107,136.741 C128.192,136.752 128.276,136.765 128.363,136.765 C129.428,136.765 130.291,135.904 130.291,134.838 C130.291,133.773 129.428,132.911 128.363,132.911" fill="#559AC7"/>
    <path d="M92.705,142.548 C91.982,142.548 91.36,142.951 91.031,143.537 C91.975,143.663 92.705,144.461 92.705,145.438 C92.705,145.782 92.607,146.098 92.452,146.377 C92.534,146.389 92.619,146.403 92.705,146.403 C93.77,146.403 94.631,145.542 94.631,144.476 C94.631,143.412 93.77,142.548 92.705,142.548" fill="#559AC7"/>
    <path d="M108.205,125.201 C108.205,121.874 105.507,119.178 102.181,119.178 C100.817,119.178 99.575,119.647 98.567,120.409 C99.105,120.252 99.663,120.142 100.253,120.142 C103.581,120.142 106.278,122.838 106.278,126.164 C106.278,128.128 105.324,129.855 103.87,130.954 C106.37,130.22 108.205,127.938 108.205,125.201" fill="#559AC7"/>
    <path d="M116.436,114.88 C116.436,115.427 116.248,115.887 115.942,115.887 L115.953,115.887 C117.285,115.887 118.364,115.25 118.364,113.918 C118.364,112.585 117.285,111.728 115.953,111.728 C115.166,111.728 114.474,111.998 114.035,112.581 C115.361,112.584 116.436,113.551 116.436,114.88" fill="#559AC7"/>
    <path d="M156.914,137.142 C156.914,137.688 156.725,138.241 156.419,138.241 L156.431,138.241 C157.763,138.241 158.842,137.511 158.842,136.179 C158.842,134.844 157.763,133.939 156.431,133.939 C155.644,133.939 154.951,134.234 154.512,134.817 C155.838,134.822 156.914,135.813 156.914,137.142" fill="#559AC7"/>
    <path d="M243.932,83.359 C243.932,86.112 242.546,88.538 240.435,89.985 C243.59,88.901 245.86,85.916 245.86,82.396 C245.86,77.962 242.265,74.364 237.829,74.364 C236.146,74.364 234.585,74.883 233.295,75.767 C234.113,75.488 234.987,75.328 235.901,75.328 C240.336,75.328 243.932,78.923 243.932,83.359" fill="#559AC7"/>
    <path d="M258.388,100.064 C257.524,100.064 256.758,100.449 256.229,101.05 C256.307,101.045 256.381,101.026 256.461,101.026 C258.056,101.026 259.353,102.322 259.353,103.918 C259.353,104.651 259.07,105.312 258.622,105.823 C260.106,105.702 261.279,104.472 261.279,102.954 C261.279,101.359 259.986,100.064 258.388,100.064" fill="#559AC7"/>
    <path d="M273.808,96.53 C273.808,97.649 273.324,98.649 272.562,99.353 C274.364,99.029 275.734,97.462 275.734,95.565 C275.734,93.436 274.01,91.711 271.881,91.711 C270.872,91.711 269.96,92.108 269.272,92.744 C269.496,92.703 269.72,92.672 269.955,92.672 C272.083,92.672 273.808,94.4 273.808,96.53" fill="#559AC7"/>
    <path d="M261.602,61.512 C264.439,61.512 266.741,63.814 266.741,66.653 C266.741,68.28 265.97,69.713 264.792,70.655 C267.015,70.091 268.669,68.09 268.669,65.689 C268.669,62.851 266.366,60.551 263.528,60.551 C262.318,60.551 261.218,60.986 260.339,61.688 C260.745,61.585 261.163,61.512 261.602,61.512" fill="#559AC7"/>
    <path d="M202.169,86.891 C202.169,87.624 201.889,88.287 201.439,88.794 C202.925,88.675 204.096,87.444 204.096,85.929 C204.096,84.332 202.802,83.037 201.206,83.037 C200.342,83.037 199.577,83.425 199.046,84.023 C199.124,84.016 199.2,84 199.279,84 C200.876,84 202.169,85.293 202.169,86.891" fill="#559AC7"/>
    <path d="M162.014,83.359 C162.014,85.842 160.779,88.027 158.9,89.366 C161.823,88.383 163.94,85.651 163.94,82.396 C163.94,78.316 160.633,75.006 156.552,75.006 C154.955,75.006 153.486,75.524 152.277,76.386 C153.019,76.137 153.8,75.97 154.624,75.97 C158.705,75.97 162.014,79.278 162.014,83.359" fill="#559AC7"/>
    <path d="M185.466,75.006 C185.466,75.614 185.245,76.164 184.893,76.605 C186.279,76.567 187.392,75.437 187.392,74.042 C187.392,72.622 186.242,71.472 184.822,71.472 C184.011,71.472 183.296,71.856 182.826,72.442 C182.849,72.442 182.872,72.435 182.896,72.435 C184.314,72.435 185.466,73.587 185.466,75.006" fill="#559AC7"/>
    <path d="M207.631,68.26 C207.631,68.868 207.411,69.418 207.058,69.859 C208.446,69.821 209.558,68.691 209.558,67.297 C209.558,65.876 208.408,64.726 206.989,64.726 C206.177,64.726 205.463,65.11 204.991,65.696 C205.016,65.696 205.037,65.689 205.062,65.689 C206.48,65.689 207.631,66.838 207.631,68.26" fill="#559AC7"/>
    <path d="M132.62,91.388 C132.62,93.413 131.632,95.197 130.128,96.321 C132.678,95.559 134.546,93.221 134.546,90.427 C134.546,87.01 131.777,84.241 128.363,84.241 C126.972,84.241 125.703,84.718 124.669,85.489 C125.233,85.322 125.817,85.204 126.435,85.204 C129.852,85.204 132.62,87.973 132.62,91.388" fill="#559AC7"/>
    <path d="M227.549,51.233 C227.549,53.167 226.612,54.866 225.182,55.953 C227.657,55.233 229.476,52.975 229.476,50.272 C229.476,46.987 226.816,44.328 223.532,44.328 C222.183,44.328 220.952,44.794 219.954,45.553 C220.483,45.398 221.028,45.29 221.605,45.29 C224.89,45.29 227.549,47.948 227.549,51.233" fill="#559AC7"/>
    <path d="M318.944,58.301 C318.944,59.989 318.141,61.473 316.911,62.446 C319.186,61.85 320.871,59.798 320.871,57.339 C320.871,54.409 318.499,52.037 315.572,52.037 C314.332,52.037 313.206,52.48 312.303,53.192 C312.733,53.079 313.178,53 313.643,53 C316.57,53 318.944,55.372 318.944,58.301" fill="#559AC7"/>
    <path d="M289.55,42.56 C289.55,44.8 288.446,46.767 286.767,47.995 C289.491,47.127 291.478,44.607 291.478,41.596 C291.478,37.871 288.456,34.847 284.731,34.847 C283.243,34.847 281.881,35.346 280.767,36.16 C281.413,35.953 282.09,35.814 282.802,35.814 C286.53,35.814 289.55,38.833 289.55,42.56" fill="#559AC7"/>
    <path d="M256.46,45.13 C256.46,45.861 256.179,46.525 255.73,47.031 C257.216,46.912 258.387,45.684 258.387,44.166 C258.387,42.569 257.093,41.274 255.497,41.274 C254.633,41.274 253.866,41.662 253.337,42.262 C253.415,42.254 253.491,42.24 253.57,42.24 C255.167,42.24 256.46,43.53 256.46,45.13" fill="#559AC7"/>
    <path d="M191.89,55.73 C191.89,57.847 190.853,59.708 189.275,60.878 C191.898,60.071 193.816,57.655 193.816,54.768 C193.816,51.419 191.249,48.702 187.979,48.4 C187.782,48.383 187.592,48.342 187.392,48.342 C185.959,48.342 184.65,48.828 183.583,49.619 C184.181,49.433 184.805,49.305 185.464,49.305 C189.013,49.305 191.89,52.181 191.89,55.73" fill="#559AC7"/>
    <path d="M339.665,46.413 C339.665,47.329 339.296,48.157 338.703,48.765 C340.334,48.532 341.591,47.143 341.591,45.452 C341.591,43.593 340.088,42.09 338.231,42.09 C337.291,42.09 336.442,42.48 335.832,43.101 C335.987,43.078 336.142,43.053 336.304,43.053 C338.16,43.053 339.665,44.558 339.665,46.413" fill="#559AC7"/>
    <path d="M404.235,53.161 C404.235,54.075 403.867,54.905 403.272,55.511 C404.905,55.281 406.163,53.89 406.163,52.197 C406.163,50.339 404.659,48.836 402.801,48.836 C401.861,48.836 401.013,49.226 400.403,49.848 C400.559,49.823 400.714,49.802 400.875,49.802 C402.73,49.802 404.235,51.304 404.235,53.161" fill="#559AC7"/>
    <path d="M377.893,66.653 C377.893,67.905 377.328,69.019 376.454,69.783 C378.374,69.409 379.821,67.719 379.821,65.689 C379.821,63.382 377.952,61.512 375.644,61.512 C374.592,61.512 373.642,61.916 372.907,62.557 C373.169,62.505 373.438,62.476 373.717,62.476 C376.023,62.476 377.893,64.347 377.893,66.653" fill="#559AC7"/>
    <path d="M406.484,78.861 C408.79,78.861 410.66,80.729 410.66,83.037 C410.66,84.291 410.097,85.403 409.223,86.167 C411.142,85.79 412.588,84.102 412.588,82.074 C412.588,79.764 410.718,77.896 408.411,77.896 C407.358,77.896 406.408,78.3 405.674,78.943 C405.936,78.888 406.206,78.861 406.484,78.861" fill="#559AC7"/>
    <path d="M377.893,48.021 C377.893,48.364 377.797,48.68 377.64,48.958 C377.723,48.969 377.807,48.983 377.893,48.983 C378.958,48.983 379.821,48.121 379.821,47.056 C379.821,45.992 378.958,45.13 377.893,45.13 C377.171,45.13 376.55,45.53 376.22,46.121 C377.163,46.243 377.893,47.043 377.893,48.021" fill="#559AC7"/>
    <path d="M443.428,78.861 C443.428,79.203 443.33,79.519 443.174,79.799 C443.259,79.811 443.342,79.822 443.428,79.822 C444.493,79.822 445.355,78.959 445.355,77.898 C445.355,76.833 444.493,75.969 443.428,75.969 C442.706,75.969 442.085,76.372 441.755,76.959 C442.697,77.085 443.428,77.882 443.428,78.861" fill="#559AC7"/>
    <path d="M365.364,37.42 C365.364,37.762 365.269,38.078 365.11,38.359 C365.195,38.37 365.278,38.382 365.364,38.382 C366.43,38.382 367.292,37.52 367.292,36.457 C367.292,35.391 366.43,34.528 365.364,34.528 C364.642,34.528 364.021,34.929 363.69,35.519 C364.635,35.645 365.364,36.441 365.364,37.42" fill="#559AC7"/>
    <path d="M321.032,33.565 C321.032,33.907 320.936,34.226 320.78,34.502 C320.862,34.514 320.946,34.528 321.032,34.528 C322.097,34.528 322.959,33.663 322.959,32.602 C322.959,31.536 322.097,30.675 321.032,30.675 C320.311,30.675 319.689,31.074 319.358,31.663 C320.301,31.788 321.032,32.587 321.032,33.565" fill="#559AC7"/>
    <path d="M353.479,63.602 C353.479,64.854 352.915,65.965 352.039,66.732 C353.958,66.355 355.405,64.669 355.405,62.639 C355.405,60.331 353.536,58.461 351.229,58.461 C350.177,58.461 349.227,58.864 348.491,59.506 C348.755,59.453 349.024,59.425 349.302,59.425 C351.609,59.425 353.479,61.296 353.479,63.602" fill="#559AC7"/>
    <path d="M548.786,175.806 L547.762,175.428 C547.524,175.337 541.85,173.28 531.506,173.28 C523.078,173.28 514.097,174.648 504.813,177.344 L503.703,177.665 L503.686,177.656 L504.813,177.335 C514.097,174.639 523.078,173.276 531.506,173.276 C541.85,173.276 547.524,175.337 547.762,175.425 L548.786,175.806 z M543.682,177.351 L541.972,175.05 C543.948,175.376 545.413,175.735 546.324,175.989 L543.682,177.351 z M538.251,177.27 L540.703,176.147 C541.042,176.198 541.375,176.25 541.701,176.304 L541.978,176.674 C541.248,176.799 539.97,177.012 538.251,177.27 M534.996,174.326 C537.342,174.441 539.378,174.659 541.088,174.912 L537.261,176.662 L534.996,174.326 z M530.719,174.247 C531.908,174.238 533.087,174.251 534.185,174.292 L531.45,176.442 L530.719,174.247 z M524.883,174.519 C526.6,174.38 528.3,174.291 529.976,174.258 C528.516,175.524 526.846,176.885 526.397,177.188 C526.084,176.801 525.416,175.6 524.883,174.519 M517.905,175.364 C519.86,175.052 521.795,174.804 523.707,174.623 C522.748,175.684 521.737,176.758 521.343,177.109 C520.82,176.878 519.342,176.124 517.905,175.364 M512.213,176.447 C513.687,176.124 515.15,175.836 516.604,175.583 C515.882,176.507 515.089,177.473 514.746,177.822 C514.304,177.615 513.238,177.031 512.213,176.447 M535.128,177.716 C530.404,178.358 523.925,178.852 517.041,179.185 C514.76,179.294 512.433,179.147 510.11,179.137 L511.735,177.285 C514.476,178.848 514.693,178.848 514.826,178.848 C515.072,178.848 515.289,178.848 517.366,176.172 C517.447,176.215 517.518,176.25 517.595,176.291 C521.064,178.121 521.283,178.126 521.411,178.126 C521.643,178.126 521.843,178.126 524.267,175.443 C525.662,178.206 526.048,178.206 526.311,178.206 C526.489,178.206 526.853,178.207 530.097,175.428 L530.97,178.046 L534.34,175.397 C534.47,175.407 534.595,175.418 534.724,175.429 L535.345,176.071 L536.724,177.493 C536.218,177.566 535.685,177.639 535.128,177.716 M508.694,179.286 L506.216,177.945 C507.799,177.503 509.372,177.101 510.933,176.736 L508.694,179.286 z M505.813,178.822 L505.844,178.839 L506.982,179.456 C506.065,179.441 505.164,179.459 504.288,179.417 C504.783,179.195 505.301,179.025 505.813,178.822 M310.394,219.523 C310.817,218.881 311.421,218.373 312.138,218.078 C325.743,206.818 337.858,196.994 339.928,195.89 C343.34,194.072 378.642,187.152 395.357,187.152 C396.407,187.152 397.307,187.179 398.076,187.225 L317.411,222.107 C317.171,224.052 315.507,225.542 313.507,225.493 C312.688,225.471 311.937,225.192 311.323,224.739 L296.377,231.202 C300.957,227.368 305.739,223.379 310.394,219.523 M581.073,153.206 C580.477,146.947 565.112,140.523 545.522,134.97 C540.904,133.66 536.053,132.4 531.103,131.2 C524.299,129.553 517.317,128.023 510.508,126.645 C497.457,124.002 485.052,121.917 475.818,120.64 C455.206,117.791 435.286,117.718 417.713,117.654 C397.271,117.58 381.126,117.522 374.49,112.933 C372.379,111.473 370.167,109.703 367.825,107.834 C357.49,99.576 344.627,89.3 321.419,88.5 L319.345,88.427 L319.428,90.503 C320.342,113.065 313.892,131.894 310.724,135.584 C310.541,135.629 310.317,135.684 310.122,135.728 L307.552,136.316 L307.561,136.357 C285.337,141.804 219.066,158.613 193.871,165.547 C188.244,162.661 172.949,154.991 169.264,154.991 C168.708,154.991 168.223,155.117 167.819,155.37 C166.279,156.331 165.728,158.763 164.538,165.471 C164.061,168.166 163.285,172.539 162.655,173.853 L126.147,183.096 C115.243,174.728 103.606,167.747 91.558,162.24 C89.28,161.198 86.987,160.198 84.681,159.262 C79.023,156.973 73.289,155.029 67.511,153.397 C63.204,152.18 58.871,151.15 54.526,150.312 C45.24,148.519 35.898,147.571 26.626,147.571 C20.196,147.571 13.775,148.022 7.542,148.911 L1.5,149.776 L6.942,152.538 C18.347,158.331 38.475,172.405 55.479,186.041 C62.937,192.02 69.783,197.909 75.036,202.987 C78.076,205.921 80.589,208.589 82.366,210.835 C81.766,212.183 81.197,213.469 80.647,214.717 C77.766,221.24 75.552,226.401 73.859,230.442 C69.729,240.296 68.683,243.527 68.621,243.721 L67.58,246.991 L70.916,246.177 C75.136,245.146 79.07,243.923 82.761,242.571 C87.562,240.813 91.934,238.829 95.888,236.704 C101.635,233.616 106.519,230.251 110.629,226.907 C121.201,218.305 126.643,209.869 128.405,206.818 L133.595,207.263 L134.218,207.41 L134.234,207.318 L158.507,209.397 C157.298,213.202 154.643,220.978 151.682,225.975 L149.625,229.447 L153.617,228.869 C171.206,226.315 181.671,219.181 184.401,217.11 L209.499,220.816 L202.763,230.442 L207.78,229.221 C219.444,226.296 238.687,221.702 240.567,221.635 C242.904,221.824 246.643,222.484 251.373,223.135 C260.99,224.458 275.84,226.616 294.162,228.03 C289.01,232.345 285.105,235.634 283.809,236.728 L273.799,245.166 L311.089,228.854 C316.998,229.1 323.155,229.059 329.527,229.059 L329.534,229.059 C333.895,229.059 338.229,229.156 342.547,229.023 C343.934,227.996 345.656,227.496 347.517,227.542 C348.997,227.579 350.373,228.071 351.547,228.802 C373.897,227.627 395.572,224.723 416.228,220.318 C417.626,221.618 421.1,225.191 424.212,231.766 C425.263,230.993 426.517,230.512 427.883,230.384 C425.14,224.38 422.083,220.53 420.082,218.431 C423.509,217.387 427.785,216.155 432.102,215.058 C434.542,214.433 436.994,213.857 439.307,213.378 C441.617,212.892 443.788,212.506 445.66,212.244 C446.593,212.089 447.455,212.016 448.22,211.936 C448.983,211.85 449.652,211.787 450.204,211.78 C451.309,211.738 451.94,211.712 451.94,211.712 C451.94,211.712 451.309,211.677 450.202,211.615 C449.647,211.568 448.975,211.568 448.202,211.58 C447.428,211.587 446.553,211.58 445.604,211.646 C443.701,211.729 441.482,211.907 439.114,212.175 C436.746,212.433 434.227,212.777 431.717,213.171 C426.692,213.947 421.699,214.905 417.966,215.686 C414.237,216.459 411.741,217.052 411.742,217.052 L411.765,217.128 C394.604,220.614 376.758,223.012 358.412,224.241 L397.475,191.685 L407.2,187.479 L405.318,185.48 C404.362,184.463 402.366,183.297 395.357,183.297 C378.49,183.297 342.609,190.092 338.115,192.489 C334.853,194.23 313.775,211.649 298.741,224.2 C278.557,222.872 262.205,220.567 251.9,219.149 C247.107,218.489 243.322,217.841 240.873,217.646 L240.649,217.638 C238.479,217.638 221.173,221.851 211.848,224.159 L216.242,217.895 L187.686,213.686 L187.72,213.493 C187.72,213.493 186.383,213.329 184.377,213.083 C183.366,212.96 182.189,212.815 180.928,212.659 C179.664,212.445 178.319,212.216 176.971,211.989 C174.267,211.554 171.579,211.012 169.556,210.618 C167.536,210.205 166.19,209.931 166.19,209.931 C166.19,209.931 167.468,210.437 169.384,211.196 C171.309,211.938 173.875,212.947 176.48,213.85 C177.781,214.318 179.083,214.782 180.303,215.219 C180.314,215.221 180.325,215.226 180.335,215.228 C176.692,217.625 168.729,222.075 156.873,224.399 C160.249,217.365 162.778,208.645 162.9,208.214 L163.55,205.96 L131.332,203.199 L125.927,202.572 L102.181,199.812 L115.167,202.891 L124.874,205.195 C121.591,210.648 106.82,232.176 73.541,241.505 C75.207,237.177 78.867,228.151 86.353,211.358 L86.812,210.331 L86.143,209.427 C84.855,207.685 83.112,205.686 81.011,203.498 C66.187,188.078 33.364,163.258 14.019,152.023 C18.18,151.624 22.4,151.425 26.626,151.425 C59.667,151.425 93.625,163.435 122.543,185.236 C120.361,186.075 117.978,186.991 115.589,187.911 C113.56,188.701 111.552,189.536 109.659,190.296 C107.769,191.062 106.003,191.776 104.492,192.387 C101.467,193.614 99.449,194.429 99.449,194.429 C99.449,194.429 101.548,193.84 104.691,192.955 C106.263,192.515 108.099,191.999 110.064,191.447 C112.032,190.901 114.123,190.29 116.226,189.73 C123.391,187.851 130.534,185.98 132.5,185.464 L160.742,178.314 L160.781,178.473 L162.537,177.86 L164.71,177.31 L165.062,176.998 C165.073,176.988 165.083,176.975 165.092,176.966 L179.803,171.822 L166.751,173.725 C167.265,171.979 167.733,169.541 168.335,166.144 C168.754,163.774 169.36,160.36 169.879,158.938 C173.022,159.672 183.756,164.665 192.774,169.319 L193.442,169.665 L194.171,169.462 C218.783,162.661 286.168,145.569 308.539,140.087 L307.552,136.359 L307.561,136.17 L308.539,139.639 L308.542,139.639 L313.016,138.529 L368.418,122.118 L315.824,134.384 C319.532,126.716 323.743,110.86 323.346,92.428 C343.995,93.707 355.842,103.181 365.417,110.834 C367.813,112.748 370.075,114.562 372.298,116.097 C379.917,121.367 396.59,121.429 417.699,121.509 C435.15,121.571 454.933,121.643 475.289,124.458 C498.319,127.643 523.803,132.847 543.456,138.378 C575.748,147.467 577.179,152.976 577.236,153.572 C577.274,153.978 577.245,154.402 577.156,154.835 C577.154,154.842 577.151,154.849 577.151,154.854 C575.847,161.107 561.952,170.018 552.443,174.702 C549.647,173.896 539.521,171.24 527.387,171.24 C515.144,171.24 504.809,173.932 496.665,179.241 L492.259,182.116 L497.479,182.769 C501.141,183.229 505.295,183.46 509.831,183.46 C521.215,183.46 532.756,181.993 538.885,181.073 C536.617,183.954 532.845,187.826 527.894,189.65 C525.464,190.544 519.606,192.291 512.191,194.501 C494.789,199.689 481.45,203.837 472.324,207.19 C472.123,208.349 471.106,209.221 469.895,209.193 C469.351,209.177 468.857,208.978 468.461,208.663 C462.604,210.99 459.104,212.899 458.048,214.482 C457.349,215.53 456.564,216.889 455.657,218.464 C451.596,225.503 444.958,237.015 432.402,244.779 C432.356,244.538 432.299,244.322 432.251,244.086 C431.152,244.724 429.886,245.092 428.529,245.086 C428.728,246.07 428.912,247.082 429.075,248.133 L429.498,250.848 L431.906,249.528 C440.494,244.823 446.632,238.538 451.161,232.557 C450.891,231.836 450.744,231.055 450.765,230.238 C450.848,226.949 453.491,224.349 456.737,224.238 C457.564,222.863 458.32,221.562 458.996,220.39 C459.87,218.872 460.626,217.565 461.254,216.621 C463.593,213.156 493.983,203.96 510.8,198.94 C511.665,198.682 512.505,198.431 513.294,198.197 C520.773,195.965 526.683,194.204 529.225,193.268 C530.207,192.906 531.135,192.467 532.03,191.992 C539.996,187.771 544.497,179.753 544.704,179.376 L545.831,177.326 L546.188,177.143 L546.19,177.142 C547.258,177.367 548.19,177.586 548.991,177.782 C550.883,178.248 551.996,178.592 552.03,178.603 L552.76,178.833 L553.448,178.5 C556.388,177.084 582.135,164.342 581.073,153.206" fill="#2A3077"/>
    <path d="M312.167,139.202 L312.648,139.087 L313.012,138.755 C313.014,138.755 313.016,138.751 313.016,138.75 L308.542,140.084 C309.927,139.745 311.148,139.448 312.167,139.202" fill="#2A3077"/>
    <path d="M393.221,151.238 C393.357,150.319 393.394,149.778 393.394,149.778 C393.394,149.778 393.047,150.195 392.512,150.954 C391.978,151.714 391.239,152.81 390.454,154.168 C388.813,156.842 387.04,160.606 385.438,164.386 C384.012,167.816 382.816,171.334 382.069,174.242 C382.063,174.265 382.057,174.288 382.05,174.313 C381.979,174.598 381.903,174.883 381.841,175.156 C381.454,176.675 381.214,177.981 381.062,178.905 C380.911,179.826 380.865,180.375 380.865,180.375 C380.865,180.375 381.216,179.969 381.759,179.222 C382.305,178.478 383.058,177.399 383.863,176.056 C384.304,175.353 384.759,174.573 385.22,173.74 C385.233,173.715 385.247,173.688 385.261,173.662 C386.53,171.358 387.843,168.634 389.008,165.842 C390.617,162.005 391.807,158.051 392.5,154.984 C392.864,153.459 393.086,152.156 393.221,151.238" fill="#2A3077"/>
    <path d="M393.5,176.056 C394.268,174.831 395.079,173.375 395.887,171.794 C395.901,171.767 395.917,171.739 395.931,171.711 C396.865,169.88 397.794,167.881 398.645,165.842 C400.255,162.005 401.443,158.051 402.137,154.983 C402.502,153.459 402.723,152.156 402.857,151.238 C402.994,150.319 403.031,149.778 403.031,149.778 C403.031,149.778 402.685,150.195 402.149,150.954 C401.614,151.714 400.876,152.809 400.091,154.166 C398.451,156.842 396.678,160.605 395.076,164.385 C393.941,167.116 392.953,169.902 392.218,172.392 C392.211,172.418 392.203,172.446 392.194,172.47 C391.917,173.414 391.675,174.319 391.477,175.156 C391.091,176.675 390.852,177.981 390.7,178.905 C390.548,179.826 390.502,180.375 390.502,180.375 C390.502,180.375 390.854,179.969 391.397,179.222 C391.94,178.478 392.695,177.399 393.5,176.056" fill="#2A3077"/>
    <path d="M403.138,176.056 C404.21,174.343 405.369,172.189 406.488,169.85 C406.502,169.822 406.516,169.792 406.529,169.761 C407.134,168.494 407.726,167.179 408.282,165.842 C409.893,162.005 411.081,158.051 411.773,154.983 C412.139,153.459 412.359,152.156 412.494,151.238 C412.631,150.319 412.668,149.778 412.668,149.778 C412.668,149.778 412.321,150.195 411.787,150.954 C411.251,151.714 410.513,152.809 409.728,154.166 C408.088,156.842 406.315,160.605 404.713,164.387 C403.856,166.447 403.085,168.539 402.44,170.515 C402.431,170.542 402.422,170.571 402.413,170.598 C401.884,172.228 401.437,173.781 401.115,175.156 C400.728,176.675 400.488,177.981 400.337,178.905 C400.187,179.826 400.14,180.375 400.14,180.375 C400.14,180.375 400.492,179.969 401.035,179.222 C401.579,178.478 402.332,177.399 403.138,176.056" fill="#2A3077"/>
    <path d="M412.775,176.056 C414.137,173.88 415.638,170.996 417.017,167.921 C417.03,167.89 417.044,167.861 417.059,167.828 C417.351,167.172 417.642,166.51 417.92,165.842 C419.531,162.005 420.72,158.051 421.412,154.983 C421.777,153.459 421.998,152.156 422.133,151.238 C422.27,150.319 422.307,149.778 422.307,149.778 C422.307,149.778 421.96,150.195 421.425,150.954 C420.89,151.714 420.151,152.809 419.366,154.166 C417.726,156.842 415.953,160.605 414.352,164.387 C413.763,165.799 413.215,167.229 412.72,168.624 C412.709,168.655 412.697,168.684 412.688,168.712 C411.867,171.033 411.198,173.259 410.752,175.156 C410.364,176.675 410.126,177.981 409.975,178.905 C409.823,179.826 409.776,180.375 409.776,180.375 C409.776,180.375 410.129,179.969 410.672,179.222 C411.217,178.478 411.97,177.399 412.775,176.056" fill="#2A3077"/>
    <path d="M511.694,149.778 C511.694,148.489 510.185,147.447 508.321,147.447 C506.458,147.447 504.947,148.489 504.947,149.778 C504.947,151.062 506.458,152.105 508.321,152.105 C510.185,152.105 511.694,151.062 511.694,149.778" fill="#2A3077"/>
  </g>
</svg>
