<?xml version="1.0" encoding="iso-8859-1"?>
<!-- Generator: Adobe Illustrator 18.1.1, SVG Export Plug-In . SVG Version: 6.00 Build 0)  -->
<svg version="1.1" id="Capa_1" xmlns="http://www.w3.org/2000/svg" xmlns:xlink="http://www.w3.org/1999/xlink" x="0px" y="0px"
	 viewBox="0 0 21.515 21.515" style="enable-background:new 0 0 21.515 21.515;" xml:space="preserve">
<g>
	<g>
		<path style="fill:#030104;" d="M17.909,15.8c0.146-0.154,0.186-0.389,0.111-0.592c-0.08-0.201-0.263-0.332-0.468-0.332H2.16
			c-0.282,0-0.504,0.242-0.504,0.541v5.557c0,0.299,0.222,0.541,0.504,0.541h15.392c0.004,0,0.004,0,0.004,0
			c0.279,0,0.507-0.242,0.507-0.541c0-0.133-0.043-0.252-0.114-0.346C17.729,20.237,16.312,17.524,17.909,15.8z M2.352,20.524
			v-4.662h14.489c-0.316,0.635-0.434,1.303-0.434,1.945H5.458c-0.203,0-0.361,0.176-0.361,0.389s0.158,0.385,0.361,0.385h11.003
			c0.103,0.758,0.336,1.439,0.548,1.943H2.352z"/>
		<path style="fill:#030104;" d="M19.043,11.173H7.643c-0.285,0-0.517-0.232-0.517-0.518s0.231-0.516,0.517-0.516H18.96
			c0.027-0.655,0.225-1.319,0.743-1.879c0.148-0.155,0.188-0.388,0.113-0.594c-0.08-0.201-0.264-0.331-0.467-0.331H3.954
			c-0.28,0-0.501,0.242-0.501,0.542v5.558c0,0.297,0.222,0.543,0.501,0.543H19.35c0.003,0,0.003,0,0.003,0
			c0.281,0,0.506-0.246,0.506-0.543c0-0.135-0.042-0.254-0.116-0.346C19.635,12.893,19.225,12.116,19.043,11.173z"/>
		<path style="fill:#030104;" d="M2.351,6.641h15.396c0.003,0,0.003,0,0.003,0c0.28,0,0.506-0.244,0.506-0.542
			c0-0.133-0.043-0.252-0.116-0.345c-0.219-0.391-1.636-3.104-0.039-4.828c0.147-0.155,0.188-0.389,0.112-0.594
			C18.134,0.131,17.951,0,17.748,0H2.351C2.071,0,1.85,0.243,1.85,0.542v5.556C1.85,6.397,2.072,6.641,2.351,6.641z M2.546,0.988
			h14.49c-0.316,0.634-0.436,1.301-0.436,1.944H5.651c-0.202,0-0.359,0.175-0.359,0.387c0,0.213,0.157,0.388,0.359,0.388h11.003
			c0.104,0.755,0.338,1.438,0.55,1.942H2.546V0.988z"/>
	</g>
</g>
<g>
</g>
<g>
</g>
<g>
</g>
<g>
</g>
<g>
</g>
<g>
</g>
<g>
</g>
<g>
</g>
<g>
</g>
<g>
</g>
<g>
</g>
<g>
</g>
<g>
</g>
<g>
</g>
<g>
</g>
</svg>
